<?xml version="1.0" encoding="utf-8"?>
<!-- Generator: Adobe Illustrator 16.0.0, SVG Export Plug-In . SVG Version: 6.00 Build 0)  -->
<!DOCTYPE svg PUBLIC "-//W3C//DTD SVG 1.1//EN" "http://www.w3.org/Graphics/SVG/1.1/DTD/svg11.dtd">
<svg version="1.1" id="Layer_1" xmlns="http://www.w3.org/2000/svg" xmlns:xlink="http://www.w3.org/1999/xlink" x="0px" y="0px"
	 width="264.676px" height="91.999px" viewBox="0 0 264.676 91.999" enable-background="new 0 0 264.676 91.999"
	 xml:space="preserve">
<g>
	<g id="Group_3879" transform="translate(362.873 -349.8)">
		<path id="Path_15475" fill="#64BEF2" d="M-311.026,441.485c-1.838,0.201-3.685,0.307-5.534,0.314
			c-20.698,0.018-38.852-13.811-44.333-33.77c0.543,1.834,1.281,3.604,2.2,5.283c0,0,7.357,19.935,28.361,26.1
			C-324.088,441.326-317.534,442.031-311.026,441.485z"/>
		<path id="Path_15476" fill="#46A6E0" d="M-327.881,431.11l-2.2,8.489l-0.063,0.189c-4.97-1.489-9.633-3.853-13.772-6.98
			c-0.095-0.047-0.181-0.11-0.252-0.188c-6.014-4.713-10.874-10.734-14.213-17.607c-0.314-0.691-0.5-1.068-0.5-1.068
			c0.012-0.215,0.054-0.427,0.126-0.629c1.258-8.111,4.528-13.583,8.112-17.167c0.377-0.377,0.755-0.755,1.132-1.069
			c0.189-0.189,0.377-0.314,0.566-0.5c0.173-0.166,0.363-0.313,0.566-0.44c0.189-0.126,0.377-0.314,0.566-0.44
			c0.377-0.252,0.755-0.5,1.069-0.755c0.377-0.252,0.692-0.44,1.069-0.692c0.651-0.392,1.323-0.749,2.012-1.069
			c0.377-0.189,0.755-0.314,1.069-0.44l0.566-0.189c0.126-0.063,0.252-0.063,0.314-0.126c0.048-0.005,0.093-0.027,0.126-0.063
			c0.266-0.104,0.54-0.188,0.818-0.251l0.755-0.189h0.063c0.126,0,0.252-0.063,0.377-0.063c0.106-0.015,0.21-0.036,0.314-0.063
			h0.629c-2.378,1.804-4.047,4.386-4.716,7.295l0,0C-346.681,410.987-327.881,431.11-327.881,431.11z"/>
		<path id="Path_15477" fill="#299AE6" d="M-295.116,436.517l-0.252,0.126l0,0c-4.769,2.49-9.943,4.108-15.281,4.779
			c-0.129-0.01-0.258,0.012-0.377,0.063c-6.203,0.65-12.473,0.14-18.488-1.509c-0.2-0.021-0.394-0.085-0.566-0.188h-0.063
			c-0.141-0.109-0.268-0.236-0.377-0.378l0,0c-19.872-18.678-13.017-42.76-13.017-42.76v0.314l0,0
			c0.037,1.969,0.376,3.92,1.006,5.786v0.063c0.581,1.652,1.385,3.219,2.39,4.652l0,0c0.126,0.189,0.252,0.377,0.44,0.629
			c11.068,15.219,42.133,19.872,42.133,19.872L-295.116,436.517z"/>
		<path id="Path_15478" fill="#024CA3" d="M-311.843,410.169l0.189-0.942c4.842-2.139,5.471-3.145,5.471-3.145
			c0.44-0.692,0.817-1.383,1.195-2.075c15.092-26.663,9.244-42.51,2.956-51.817c6.964,2.288,13.267,6.238,18.362,11.508l0.252,0.252
			C-282.161,371.746-280.778,397.277-311.843,410.169z"/>
		<path id="Path_15479" fill="#02397C" d="M-318.006,412.117h0.063l-0.126,0.188L-318.006,412.117z"/>
		<path id="Path_15480" fill="#024596" d="M-304.989,404.005c-0.377,0.692-0.755,1.384-1.195,2.075c0,0-0.629,1.006-5.471,3.144l0,0
			c-1.824,0.818-3.9,1.636-5.911,2.39h-0.063c-0.943,0.314-1.887,0.692-2.83,0.943l0,0l-1.132,0.377
			c0.079-0.07,0.163-0.133,0.252-0.188c0.126-0.126-1.572,0.5-1.258,0.252c10.313-4.844,17.23-17.482,16.476-31.945
			c-0.063-0.692-0.126-1.321-0.189-2.012c-0.212-3.149-0.912-6.247-2.075-9.181c-3.207-8.93-9.5-15.784-17.1-18.614
			c-0.189-0.126-0.44-0.314-0.629-0.44c2.381-0.511,4.8-0.827,7.232-0.943c0.818-0.063,1.635-0.063,2.453-0.063
			c4.122-0.003,8.225,0.547,12.2,1.635l0,0l2.264,0.692C-295.745,361.499-289.896,377.342-304.989,404.005z"/>
		<path id="Path_15481" fill="#0556AF" d="M-270.527,396.207c-2.83,5.345-13.709,21.255-43.453,19.935l0,0
			c-4.582-0.22-9.143-0.767-13.647-1.635c0,0,0.377-0.126,1.069-0.313l0,0c0.818-0.252,2.075-0.629,3.584-1.133h0.063
			c0.629-0.252,1.383-0.438,2.138-0.755h0.063c1.132-0.377,2.327-0.88,3.647-1.383c0.063,0,0.126-0.063,0.189-0.063
			c1.7-0.69,3.522-1.444,5.408-2.39c3.311-1.55,6.505-3.337,9.559-5.345c2.574-1.665,4.975-3.582,7.169-5.722
			c0,0,13.017-11.571,11.068-33.706l0.252,0.252c8.061,8.308,12.668,19.365,12.891,30.938V396.207L-270.527,396.207z"/>
		<path id="Path_15482" fill="#0968C2" d="M-270.528,396.208c-0.042,9.089-2.801,17.958-7.923,25.468l-0.189,0.251l0,0
			c-30.688,4.465-50.245-7.169-52.068-8.3l-0.126-0.063l1.572,0.25l0,0c2.145,0.125,4.295-0.129,6.351-0.754h0.063
			c0.507-0.055,1.011-0.139,1.509-0.253c0.288-0.071,0.583-0.114,0.88-0.126l0,0c0.818-0.126,1.635-0.313,2.515-0.5l0,0
			c18.8-3.962,42.7-15.029,47.415-17.23L-270.528,396.208z"/>
		<path id="Path_15483" fill="#137BD2" d="M-278.451,421.676l-0.189,0.252l0,0c-4.246,6.127-9.894,11.15-16.475,14.652l-0.251,0.126
			l0,0c-3.4-0.566-33.769-5.974-44.585-28.99c0-0.034-0.027-0.063-0.061-0.063c0,0-0.001,0-0.002,0
			c0.126,0.189,0.252,0.377,0.44,0.629c2.154,2.873,5.328,4.809,8.867,5.408l-0.126-0.063l1.572,0.252l0,0l2.767,0.439l0,0
			l12.514,1.949l0,0L-278.451,421.676z"/>
		<path id="Path_15484" fill="#64BEF2" d="M-326.181,397.466c0,0,4.465,10.313-4.213,11.192c0,0,3.144-3.207-1.7-8.614
			c0,0-7.861-4.968-6.666-10.376h-0.629c-0.126,0-0.189,0.063-0.314,0.063s-0.252,0.063-0.377,0.063h-0.063
			c-0.248,0.078-0.5,0.141-0.755,0.189c-0.252,0.063-0.566,0.189-0.818,0.252c-0.048,0.005-0.093,0.027-0.126,0.063
			c-0.126,0-0.189,0.063-0.314,0.126l-0.566,0.189c-0.314,0.126-0.692,0.314-1.069,0.44c-0.689,0.32-1.361,0.677-2.012,1.069
			c-0.37,0.208-0.728,0.439-1.069,0.692c-0.377,0.252-0.692,0.5-1.069,0.755c-0.203,0.126-0.393,0.274-0.566,0.44
			c-0.189,0.126-0.377,0.314-0.566,0.44c-0.204,0.149-0.393,0.316-0.566,0.5c-0.377,0.314-0.755,0.692-1.132,1.069
			c-3.459,3.522-6.666,8.93-8.049,17.168v-0.063c-0.034-0.034-0.056-0.078-0.063-0.127c0-0.033-0.027-0.063-0.061-0.063
			c0,0-0.001,0-0.002,0c-0.162-0.264-0.309-0.536-0.44-0.815c-0.09-0.237-0.195-0.469-0.314-0.692
			c-0.126-0.252-0.252-0.5-0.377-0.817s-0.252-0.629-0.377-1.007l-0.189-0.565c-0.063-0.188-0.126-0.313-0.189-0.5
			c-0.056-0.239-0.141-0.473-0.252-0.691v-0.063c-1.7-5.471-3.144-14.714,0.377-26.35h11.381c0,0,0-5.031-7.546-6.226
			c0,0,3.773-3.522,11.948,1.635c-0.252-0.251-6.854-6.792,0-17.167c0.696,4.041,2.815,7.699,5.974,10.313
			C-338.758,370.172-317.625,386.209-326.181,397.466z"/>
		<path id="Path_18" fill="#02397C" d="M-334.419,386.901c1.143,2.013,2.01,4.17,2.578,6.414l2.767,3.459
			C-329.137,396.711-328.005,391.114-334.419,386.901z"/>
		<path id="Path_15485" fill="#FFFFFF" d="M-339.575,408.218c-0.11-0.178-0.237-0.345-0.377-0.5
			c-1.066-1.454-1.894-3.067-2.453-4.782c0.581,1.653,1.385,3.219,2.39,4.653l0,0C-339.905,407.822-339.757,408.035-339.575,408.218
			z"/>
		<path id="Path_15486" fill="#FFFFFF" d="M-329.325,413.753c-0.488-0.001-0.974-0.063-1.446-0.188l-0.126-0.063L-329.325,413.753z"
			/>
		<path id="Path_15487" fill="#FFFFFF" d="M-320.773,412.242c-0.684,0.326-1.4,0.58-2.138,0.756
			C-322.183,412.793-321.469,412.541-320.773,412.242z"/>
	</g>
	<g>
		<path fill="#0063EE" d="M116.651,26.07h2.461v10.582h3.586v2.347h-6.047V26.07L116.651,26.07z"/>
		<path fill="#0063EE" d="M125.924,26.07h2.443v12.929h-2.443V26.07z"/>
		<path fill="#0063EE" d="M143.757,37.109l2.25,2.909h-2.913l-1.145-1.471c-0.943,0.518-1.998,0.776-3.158,0.776
			c-1.942,0-3.556-0.669-4.839-2.009c-1.285-1.338-1.928-2.934-1.928-4.785c0-1.236,0.299-2.372,0.896-3.406s1.42-1.856,2.467-2.465
			c1.046-0.609,2.17-0.914,3.373-0.914c1.835,0,3.41,0.662,4.727,1.986c1.317,1.324,1.976,2.938,1.976,4.843
			C145.462,34.326,144.895,35.838,143.757,37.109z M142.219,35.122c0.521-0.773,0.782-1.629,0.782-2.565
			c0-1.225-0.414-2.265-1.24-3.12c-0.827-0.855-1.827-1.283-3-1.283c-1.209,0-2.221,0.416-3.036,1.248
			c-0.814,0.832-1.223,1.89-1.223,3.173c0,1.43,0.514,2.561,1.541,3.393c0.803,0.65,1.715,0.976,2.736,0.976
			c0.588,0,1.14-0.114,1.655-0.344l-2.315-2.979h2.938L142.219,35.122z"/>
		<path fill="#0063EE" d="M149.225,26.07h2.471v8.36c0,0.721,0.063,1.229,0.188,1.528s0.334,0.537,0.625,0.716
			c0.289,0.179,0.641,0.268,1.05,0.268c0.435,0,0.808-0.1,1.12-0.299c0.313-0.198,0.53-0.452,0.65-0.76
			c0.119-0.307,0.181-0.894,0.181-1.761v-8.053h2.47v7.708c0,1.301-0.072,2.203-0.22,2.707c-0.147,0.504-0.427,0.99-0.839,1.459
			c-0.414,0.469-0.891,0.816-1.43,1.041c-0.539,0.226-1.166,0.339-1.881,0.339c-0.938,0-1.752-0.216-2.447-0.646
			c-0.693-0.432-1.19-0.97-1.489-1.617s-0.448-1.742-0.448-3.283V26.07z"/>
		<path fill="#0063EE" d="M162.189,26.07h2.443v12.929h-2.443V26.07z"/>
		<path fill="#0063EE" d="M168.941,26.07h2.914c1.881,0,3.276,0.233,4.189,0.699s1.665,1.223,2.257,2.272
			c0.591,1.049,0.888,2.273,0.888,3.674c0,0.996-0.166,1.911-0.496,2.747c-0.332,0.834-0.787,1.527-1.371,2.078
			c-0.582,0.551-1.213,0.932-1.893,1.143c-0.679,0.211-1.855,0.316-3.529,0.316h-2.959V26.07z M171.384,28.443v8.156h1.144
			c1.125,0,1.939-0.129,2.447-0.387c0.506-0.259,0.922-0.692,1.243-1.303c0.322-0.609,0.483-1.36,0.483-2.252
			c0-1.373-0.385-2.438-1.151-3.194c-0.69-0.68-1.802-1.021-3.331-1.021L171.384,28.443L171.384,28.443z"/>
	</g>
	<g>
		<path fill="#0063EE" d="M115.376,54.069h7.146v2.427h-2.355v10.503h-2.496V56.496h-2.294L115.376,54.069L115.376,54.069z"/>
		<path fill="#0063EE" d="M125.749,54.069h7.058v2.408h-4.614v2.338h4.614v2.365h-4.614v3.4h4.614v2.418h-7.058V54.069z"/>
		<path fill="#0063EE" d="M148.512,56.343l-1.721,1.641c-1.172-1.237-2.488-1.855-3.952-1.855c-1.235,0-2.274,0.423-3.122,1.268
			c-0.846,0.845-1.27,1.886-1.27,3.123c0,0.861,0.188,1.627,0.563,2.297c0.375,0.668,0.905,1.192,1.59,1.574
			c0.686,0.381,1.446,0.571,2.283,0.571c0.714,0,1.367-0.134,1.958-0.399c0.592-0.268,1.241-0.752,1.95-1.457l1.668,1.742
			c-0.955,0.932-1.857,1.577-2.707,1.938c-0.85,0.359-1.819,0.541-2.909,0.541c-2.01,0-3.655-0.639-4.935-1.911
			c-1.281-1.274-1.921-2.908-1.921-4.899c0-1.289,0.291-2.436,0.875-3.438c0.582-1.002,1.418-1.809,2.506-2.417
			c1.086-0.609,2.257-0.914,3.511-0.914c1.065,0,2.093,0.226,3.081,0.676C146.945,54.871,147.797,55.513,148.512,56.343z"/>
		<path fill="#0063EE" d="M152.188,54.069h2.495v4.879h4.315v-4.879h2.486v12.93h-2.486V61.33h-4.315v5.669h-2.495V54.069z"/>
		<path fill="#0063EE" d="M165.979,54.069h2.359l5.531,8.509v-8.509h2.462v12.93h-2.367l-5.524-8.48v8.48h-2.461V54.069z"/>
		<path fill="#0063EE" d="M186.918,53.745c1.83,0,3.402,0.662,4.719,1.986s1.975,2.938,1.975,4.843c0,1.887-0.648,3.483-1.947,4.79
			s-2.874,1.96-4.729,1.96c-1.939,0-3.553-0.671-4.837-2.013s-1.926-2.937-1.926-4.781c0-1.236,0.299-2.373,0.897-3.41
			c0.598-1.037,1.42-1.859,2.467-2.465C184.583,54.048,185.711,53.745,186.918,53.745z M186.893,56.153
			c-1.197,0-2.203,0.416-3.019,1.248c-0.816,0.832-1.224,1.89-1.224,3.173c0,1.43,0.515,2.561,1.541,3.393
			c0.797,0.65,1.711,0.976,2.743,0.976c1.169,0,2.162-0.422,2.983-1.266c0.82-0.844,1.23-1.884,1.23-3.119
			c0-1.23-0.414-2.272-1.24-3.125C189.083,56.579,188.076,56.153,186.893,56.153z"/>
		<path fill="#0063EE" d="M197.461,54.069h2.461v10.582h3.586v2.348h-6.047V54.069z"/>
		<path fill="#0063EE" d="M213.014,53.745c1.83,0,3.402,0.662,4.719,1.986c1.317,1.324,1.976,2.938,1.976,4.843
			c0,1.887-0.649,3.483-1.948,4.79s-2.874,1.96-4.729,1.96c-1.939,0-3.553-0.671-4.836-2.013c-1.285-1.342-1.926-2.937-1.926-4.781
			c0-1.236,0.299-2.373,0.896-3.41s1.42-1.859,2.467-2.465C210.679,54.048,211.807,53.745,213.014,53.745z M212.988,56.153
			c-1.197,0-2.203,0.416-3.02,1.248s-1.223,1.89-1.223,3.173c0,1.43,0.514,2.561,1.539,3.393c0.798,0.65,1.713,0.976,2.744,0.976
			c1.168,0,2.162-0.422,2.983-1.266s1.231-1.884,1.231-3.119c0-1.23-0.414-2.272-1.24-3.125
			C215.179,56.579,214.173,56.153,212.988,56.153z"/>
		<path fill="#0063EE" d="M235.492,56.181l-1.732,1.713c-1.098-1.16-2.375-1.74-3.835-1.74c-1.272,0-2.339,0.423-3.196,1.267
			c-0.859,0.845-1.289,1.869-1.289,3.076c0,1.248,0.444,2.306,1.336,3.173c0.893,0.867,1.992,1.301,3.301,1.301
			c0.851,0,1.566-0.179,2.15-0.535c0.584-0.357,1.055-0.918,1.412-1.68h-3.744v-2.313h6.504l0.019,0.545
			c0,1.132-0.293,2.203-0.88,3.218c-0.586,1.015-1.344,1.787-2.275,2.319c-0.931,0.533-2.023,0.801-3.277,0.801
			c-1.343,0-2.539-0.292-3.592-0.874c-1.052-0.583-1.884-1.414-2.496-2.492c-0.611-1.078-0.918-2.241-0.918-3.489
			c0-1.711,0.565-3.199,1.696-4.465c1.342-1.506,3.088-2.259,5.237-2.259c1.125,0,2.178,0.208,3.156,0.624
			C233.895,54.722,234.701,55.324,235.492,56.181z"/>
		<path fill="#0063EE" d="M240.027,54.069h2.443v12.93h-2.443V54.069z"/>
		<path fill="#0063EE" d="M246.779,54.069h7.058v2.408h-4.614v2.338h4.614v2.365h-4.614v3.4h4.614v2.418h-7.058V54.069z"/>
		<path fill="#0063EE" d="M264.445,55.828l-1.821,1.608c-0.642-0.892-1.292-1.336-1.955-1.336c-0.323,0-0.587,0.086-0.792,0.26
			c-0.206,0.172-0.309,0.367-0.309,0.584s0.072,0.422,0.22,0.615c0.2,0.258,0.802,0.812,1.806,1.66
			c0.938,0.785,1.508,1.28,1.708,1.485c0.498,0.504,0.853,0.985,1.062,1.444c0.207,0.461,0.313,0.964,0.313,1.509
			c0,1.062-0.365,1.937-1.1,2.628s-1.689,1.037-2.868,1.037c-0.921,0-1.724-0.227-2.407-0.678s-1.268-1.16-1.755-2.127l2.067-1.248
			c0.623,1.144,1.338,1.715,2.148,1.715c0.422,0,0.777-0.123,1.064-0.369s0.432-0.53,0.432-0.854c0-0.293-0.107-0.586-0.326-0.879
			c-0.217-0.293-0.695-0.74-1.435-1.345c-1.409-1.147-2.318-2.034-2.729-2.659c-0.41-0.623-0.615-1.246-0.615-1.867
			c0-0.896,0.342-1.666,1.024-2.307c0.685-0.643,1.526-0.963,2.529-0.963c0.646,0,1.26,0.148,1.844,0.447
			C263.134,54.49,263.766,55.037,264.445,55.828z"/>
	</g>
</g>
</svg>
